<svg width="40" height="40" viewBox="0 0 40 40" fill="none" xmlns="http://www.w3.org/2000/svg">
<g id="ri:google-fill">
<path id="Vector" d="M5.10683 12.5168C6.49351 9.75557 8.62078 7.43435 11.2509 5.81261C13.881 4.19087 16.9103 3.33252 20.0002 3.3335C24.4918 3.3335 28.2652 4.98516 31.1502 7.67516L26.3718 12.4552C24.6435 10.8035 22.4468 9.96183 20.0002 9.96183C15.6585 9.96183 11.9835 12.8952 10.6752 16.8335C10.3418 17.8335 10.1518 18.9002 10.1518 20.0002C10.1518 21.1002 10.3418 22.1668 10.6752 23.1668C11.9852 27.1068 15.6585 30.0385 20.0002 30.0385C22.2418 30.0385 24.1502 29.4468 25.6435 28.4468C26.5092 27.8768 27.2504 27.1372 27.8222 26.2727C28.394 25.4081 28.7845 24.4366 28.9702 23.4168H20.0002V16.9702H35.6968C35.8935 18.0602 36.0002 19.1968 36.0002 20.3785C36.0002 25.4552 34.1835 29.7285 31.0302 32.6285C28.2735 35.1752 24.5002 36.6668 20.0002 36.6668C17.8112 36.6677 15.6436 36.2372 13.6211 35.3999C11.5986 34.5627 9.76091 33.3351 8.2131 31.7872C6.66528 30.2394 5.43766 28.4018 4.60039 26.3793C3.76312 24.3568 3.33262 22.1891 3.3335 20.0002C3.3335 17.3102 3.97683 14.7668 5.10683 12.5168Z" fill="#3D53C9"/>
</g>
</svg>
