<svg width="32" height="32" viewBox="0 0 32 32" fill="none" xmlns="http://www.w3.org/2000/svg">
<g id="Frame">
<path id="Vector" d="M15.8814 16.1185C17.6513 16.1185 19.3488 15.4153 20.6004 14.1638C21.852 12.9122 22.5551 11.2147 22.5551 9.44472C22.5551 7.67474 21.852 5.97725 20.6004 4.72569C19.3488 3.47412 17.6513 2.771 15.8814 2.771C14.1114 2.771 12.4139 3.47412 11.1623 4.72569C9.91075 5.97725 9.20762 7.67474 9.20762 9.44472C9.20762 11.2147 9.91075 12.9122 11.1623 14.1638C12.4139 15.4153 14.1114 16.1185 15.8814 16.1185ZM7.77754 18.0252C6.89255 18.0252 6.0438 18.3768 5.41802 19.0026C4.79224 19.6284 4.44067 20.4771 4.44067 21.3621V21.8388C4.44067 24.1203 5.89269 26.0499 7.95392 27.3618C10.0266 28.6813 12.8324 29.4659 15.8814 29.4659C18.9303 29.4659 21.7352 28.6813 23.8088 27.3618C25.87 26.0499 27.322 24.1203 27.322 21.8388V21.3621C27.322 20.4771 26.9705 19.6284 26.3447 19.0026C25.7189 18.3768 24.8702 18.0252 23.9852 18.0252H7.77754Z" fill="black"/>
</g>
</svg>
